<?xml version="1.0" encoding="UTF-8" standalone="no"?>
<svg
   height="21"
   viewBox="0 0 21 21"
   width="21"
   version="1.1"
   id="svg8691"
   sodipodi:docname="button_minus_icon.svg"
   inkscape:version="1.2.1 (9c6d41e410, 2022-07-14)"
   xmlns:inkscape="http://www.inkscape.org/namespaces/inkscape"
   xmlns:sodipodi="http://sodipodi.sourceforge.net/DTD/sodipodi-0.dtd"
   xmlns="http://www.w3.org/2000/svg"
   xmlns:svg="http://www.w3.org/2000/svg">
  <defs
     id="defs8695" />
  <sodipodi:namedview
     id="namedview8693"
     pagecolor="#ffffff"
     bordercolor="#000000"
     borderopacity="0.25"
     inkscape:showpageshadow="2"
     inkscape:pageopacity="0.0"
     inkscape:pagecheckerboard="0"
     inkscape:deskcolor="#d1d1d1"
     showgrid="false"
     inkscape:zoom="26.904762"
     inkscape:cx="3.8097345"
     inkscape:cy="10.518584"
     inkscape:window-width="1366"
     inkscape:window-height="745"
     inkscape:window-x="-8"
     inkscape:window-y="-8"
     inkscape:window-maximized="1"
     inkscape:current-layer="svg8691" />
  <g
     fill="none"
     fill-rule="evenodd"
     stroke="currentColor"
     stroke-linecap="round"
     stroke-linejoin="round"
     transform="translate(4 4)"
     id="g8689">
    <path
       d="m12.5 10.5v-8c0-1.1045695-.8954305-2-2-2h-8c-1.1045695 0-2 .8954305-2 2v8c0 1.1045695.8954305 2 2 2h8c1.1045695 0 2-.8954305 2-2z"
       id="path8685" />
    <path
       d="m6.5 3.5v6"
       transform="matrix(0 1 -1 0 13 0)"
       id="path8687" />
  </g>
  <path
     style="fill:#000080;stroke-width:0.0371681"
     d="M 7.1821975,10.837369 C 7.0532373,10.719186 7.0433628,10.695191 7.0433628,10.5 c 0,-0.195191 0.00987,-0.219186 0.1388347,-0.337369 L 7.3210323,10.035398 H 10.5 13.678968 l 0.138835,0.127233 c 0.12896,0.118183 0.138834,0.142178 0.138834,0.337369 0,0.195191 -0.0099,0.219186 -0.138834,0.337369 l -0.138835,0.127233 H 10.5 7.3210323 Z"
     id="path8766" />
  <path
     style="fill:#000080;stroke-width:0.0371681"
     d="M 6.0026549,16.92504 C 5.267364,16.770338 4.6175269,16.267741 4.2989067,15.607328 4.0012487,14.990363 4.0141593,15.221931 4.0141593,10.5 c 0,-4.7288079 -0.012853,-4.498589 0.2852382,-5.109013 C 4.5404126,4.8974424 4.8974424,4.5404126 5.390987,4.2993975 6.001411,4.0013061 5.7711921,4.0141593 10.5,4.0141593 c 4.728808,0 4.498589,-0.012853 5.109013,0.2852382 0.493545,0.2410151 0.850574,0.5980449 1.091589,1.0915895 0.298092,0.610424 0.285239,0.3802051 0.285239,5.109013 0,4.728808 0.01285,4.498589 -0.285239,5.109013 -0.241882,0.495321 -0.602033,0.855078 -1.093274,1.09208 -0.617963,0.29814 -0.381027,0.285138 -5.133637,0.281717 -3.5574261,-0.0026 -4.2512329,-0.01152 -4.4710361,-0.05777 z m 9.0132741,-0.99022 c 0.420885,-0.166245 0.777151,-0.527788 0.918089,-0.931688 0.0629,-0.180253 0.06687,-0.448642 0.06687,-4.521716 0,-4.061862 -0.0041,-4.3404493 -0.06607,-4.4973452 C 15.768575,5.5631856 15.407032,5.2069203 15.003132,5.0659822 14.822897,5.0030904 14.555181,4.999115 10.5,4.999115 c -4.0551815,0 -4.3228969,0.00398 -4.5031322,0.066867 -0.4038999,0.1409381 -0.7654426,0.4972034 -0.9316881,0.9180886 -0.061731,0.1562857 -0.066724,0.4461505 -0.076124,4.4191114 -0.00887,3.749928 -0.00322,4.278532 0.047837,4.477845 0.1367681,0.533858 0.5320549,0.93648 1.0595836,1.079247 0.1750244,0.04737 0.8020574,0.05407 4.4778597,0.04785 3.998436,-0.0068 4.285133,-0.0115 4.441593,-0.0733 z"
     id="path8837" />
  <path
     style="fill:#0000ff;stroke-width:0.0371681"
     d="M 6.1604679,15.942552 C 5.7472581,15.843379 5.3494153,15.509699 5.154966,15.099214 L 5.0362832,14.848673 V 10.5 6.1513274 L 5.154966,5.9007862 C 5.3085749,5.5765155 5.5765155,5.3085749 5.9007862,5.154966 L 6.1513274,5.0362832 H 10.5 14.848673 l 0.250541,0.1186828 c 0.324271,0.1536089 0.592211,0.4215495 0.74582,0.7458202 l 0.118683,0.2505412 V 10.5 14.848673 l -0.118683,0.250541 c -0.153609,0.324271 -0.421549,0.592211 -0.74582,0.74582 l -0.250541,0.118683 -4.274337,0.0062 c -2.432604,0.0035 -4.3344578,-0.0083 -4.4138681,-0.02733 z M 13.751097,10.95422 c 0.144607,-0.07317 0.261292,-0.276013 0.261292,-0.45422 0,-0.178207 -0.116685,-0.381049 -0.261292,-0.45422 -0.133709,-0.067658 -6.3684848,-0.067658 -6.5021938,0 -0.1446067,0.07317 -0.2612926,0.276013 -0.2612926,0.45422 0,0.178207 0.1166859,0.381049 0.2612926,0.45422 0.133709,0.06766 6.3684848,0.06766 6.5021938,0 z"
     id="path8839" />
  <path
     style="fill:#9f9fff;stroke-width:0.0371681;fill-opacity:1"
     d="M 6.0265019,16.906885 C 5.5737414,16.831644 4.9999039,16.500702 4.6658232,16.122157 4.3999661,15.820916 4.1368711,15.253775 4.0836785,14.867257 4.0239616,14.43333 4.0228427,6.5862777 4.082433,6.1327434 4.1160458,5.8769207 4.1604813,5.7425649 4.3159924,5.4265487 4.5809742,4.8880759 4.8863678,4.5835423 5.4313228,4.3143588 5.7452278,4.1593037 5.8754827,4.1164071 6.1327434,4.083361 c 0.4375108,-0.0562 8.2970026,-0.0562 8.7345136,0 0.257321,0.033054 0.388328,0.07621 0.706194,0.2326314 0.538473,0.2649818 0.843007,0.5703754 1.11219,1.1153304 0.154893,0.3135759 0.198018,0.4444296 0.231167,0.7014206 0.05651,0.4380698 0.05651,8.2964436 0,8.7345136 -0.06007,0.465702 -0.325935,0.990134 -0.687337,1.355806 -0.347602,0.35171 -0.885947,0.628556 -1.337028,0.687571 -0.362633,0.04744 -8.5787953,0.04397 -8.8659411,-0.0037 z M 15.146018,15.89176 c 0.270074,-0.132154 0.604637,-0.457611 0.722633,-0.702964 0.05626,-0.116987 0.09851,-0.29819 0.120396,-0.51639 0.01872,-0.186615 0.02885,-2.173283 0.02278,-4.465788 L 16.000885,6.0769912 15.89176,5.8539823 C 15.759504,5.5837007 15.434101,5.2493228 15.188279,5.1310985 15.082288,5.0801238 14.890131,5.0318391 14.723677,5.0143549 c -0.370264,-0.038892 -8.0770904,-0.038892 -8.4473544,0 C 6.1098692,5.0318391 5.9177119,5.0801238 5.8117209,5.1310985 5.5658989,5.2493228 5.2404958,5.5837007 5.1082395,5.8539823 L 4.999115,6.0769912 4.9883481,10.368103 c -0.0071,2.829859 0.0022,4.351579 0.027314,4.468679 0.1193827,0.556663 0.589978,1.036258 1.1219775,1.143436 0.089298,0.01799 2.1025371,0.03 4.4738644,0.02669 l 4.311505,-0.006 z"
     id="path8841" />
  <path
     style="fill:#9f9fff;fill-opacity:1;stroke-width:0.0371681"
     d="M 5.9925683,15.855156 C 5.614773,15.699798 5.3596911,15.449027 5.1504869,15.027306 L 5.0362832,14.79709 V 10.501303 6.2055156 L 5.1566527,5.9554127 C 5.3080517,5.6408368 5.6164286,5.3238132 5.9201737,5.1704832 L 6.1492076,5.0548673 H 10.5 14.850792 l 0.229034,0.1156159 c 0.303746,0.15333 0.612122,0.4703536 0.763521,0.7849295 l 0.12037,0.2501029 V 10.5 14.794484 l -0.12037,0.250103 c -0.151399,0.314576 -0.459775,0.6316 -0.763521,0.78493 l -0.229034,0.115616 -4.321856,-8.83e-4 -4.3218564,-8.82e-4 z m 7.6558437,-4.87567 c 0.376772,-0.04569 0.510329,-0.592538 0.212962,-0.871977 l -0.09651,-0.0907 -1.632431,-0.025241 c -0.897837,-0.013883 -2.3697414,-0.013883 -3.2708986,0 L 7.223065,10.016814 7.1166224,10.135967 c -0.192956,0.215997 -0.1828494,0.563988 0.021972,0.756524 l 0.096481,0.0907 1.2886569,0.0207 c 1.405075,0.02257 4.8734957,0.0061 5.1246797,-0.0244 z"
     id="path10703" />
  <path
     style="fill:#9f9fff;fill-opacity:1;stroke-width:0.0371681"
     d="m 6.7181416,15.95668 c 0.035774,-0.0093 0.094314,-0.0093 0.1300885,0 0.035774,0.0093 0.0065,0.017 -0.065044,0.017 -0.071549,0 -0.1008185,-0.0076 -0.065044,-0.017 z"
     id="path10716" />
</svg>
