<?xml version="1.0" encoding="UTF-8" standalone="no"?>
<svg
   height="21"
   viewBox="0 0 21 21"
   width="21"
   version="1.1"
   id="svg607"
   sodipodi:docname="plus_icon.svg"
   inkscape:version="1.2.1 (9c6d41e410, 2022-07-14)"
   xmlns:inkscape="http://www.inkscape.org/namespaces/inkscape"
   xmlns:sodipodi="http://sodipodi.sourceforge.net/DTD/sodipodi-0.dtd"
   xmlns="http://www.w3.org/2000/svg"
   xmlns:svg="http://www.w3.org/2000/svg">
  <defs
     id="defs611" />
  <sodipodi:namedview
     id="namedview609"
     pagecolor="#ffffff"
     bordercolor="#000000"
     borderopacity="0.25"
     inkscape:showpageshadow="2"
     inkscape:pageopacity="0.0"
     inkscape:pagecheckerboard="0"
     inkscape:deskcolor="#d1d1d1"
     showgrid="false"
     inkscape:zoom="26.904762"
     inkscape:cx="3.8097345"
     inkscape:cy="10.518584"
     inkscape:window-width="1366"
     inkscape:window-height="745"
     inkscape:window-x="-8"
     inkscape:window-y="-8"
     inkscape:window-maximized="1"
     inkscape:current-layer="svg607" />
  <g
     fill="none"
     fill-rule="evenodd"
     stroke="currentColor"
     stroke-linecap="round"
     stroke-linejoin="round"
     transform="translate(2 3)"
     id="g605">
    <path
       d="m8 16c4.4380025 0 8-3.5262833 8-7.96428571 0-4.43800246-3.5619975-8.03571429-8-8.03571429-4.43800245 0-8 3.59771183-8 8.03571429 0 4.43800241 3.56199755 7.96428571 8 7.96428571z"
       id="path599" />
    <path
       d="m4 8h8"
       id="path601" />
    <path
       d="m8 12.0563492v-8.0563492z"
       id="path603" />
  </g>
  <path
     style="fill:#0a0700;stroke-width:0.0371681"
     d="M 9.0876106,19.432414 C 8.2710622,19.350201 7.1522952,19.040393 6.3929204,18.686203 3.9634711,17.553048 2.2209015,15.342632 1.6930138,12.72446 1.394321,11.243028 1.4868448,9.7749481 1.9702422,8.3256637 2.7000932,6.137481 4.224829,4.3954927 6.3,3.3789788 9.1570396,1.97947 12.603727,2.323109 15.129696,4.2593105 c 1.729507,1.325698 2.864107,3.2148668 3.234627,5.3858222 0.09767,0.5722483 0.132592,1.5975463 0.0747,2.1929203 -0.28466,2.927449 -2.044504,5.477406 -4.668226,6.764105 -1.426035,0.699342 -3.076776,0.991993 -4.6831864,0.830256 z m 1.7469024,-0.960668 c 3.458591,-0.386468 6.172458,-3.028806 6.61481,-6.440464 C 17.75315,9.6879973 16.965978,7.3503204 15.313274,5.6878246 13.437502,3.8009387 10.708055,3.0618996 8.092411,3.7326662 5.0933063,4.501769 2.877355,7.0784722 2.5282544,10.202655 c -0.086186,0.771301 -0.02451,1.796845 0.1542345,2.564602 0.6489105,2.787242 2.8696301,4.964288 5.6847303,5.572931 0.2355594,0.05093 0.5609156,0.107724 0.7230133,0.126211 0.4123444,0.04703 1.3456725,0.04989 1.7442805,0.0053 z"
     id="path682" />
  <path
     style="fill:#0a0700;stroke-width:0.0371681"
     d="M 9.777513,15.468367 C 9.7078629,15.431013 9.6203141,15.343465 9.5829605,15.273814 9.519817,15.156077 9.5150442,15.018497 9.5150442,13.316067 V 11.484956 H 7.7105436 c -1.9603799,0 -1.9281908,0.0032 -2.0948724,-0.208695 -0.1062751,-0.135107 -0.1062751,-0.413875 0,-0.548982 0.1666816,-0.211902 0.1344925,-0.208695 2.0948724,-0.208695 h 1.8045006 l 1.487e-4,-1.8119468 c 1.487e-4,-1.7304392 0.0034,-1.8172899 0.072562,-1.9307239 0.2031105,-0.3331107 0.6178591,-0.3331107 0.8209701,0 0.06916,0.113434 0.07243,0.2002847 0.07256,1.9307239 l 1.29e-4,1.8119468 1.811947,1.49e-4 c 1.730439,1.48e-4 1.81729,0.0034 1.930724,0.07256 0.33311,0.20311 0.33311,0.617859 0,0.82097 -0.113434,0.06916 -0.200285,0.07243 -1.930724,0.07256 l -1.811947,1.3e-4 v 1.831111 c 0,1.704322 -0.0047,1.840078 -0.0682,1.960619 -0.07359,0.13975 -0.265244,0.259447 -0.4155686,0.25954 -0.051425,3.1e-5 -0.1504868,-0.0305 -0.2201373,-0.06786 z"
     id="path684" />
  <path
     style="fill:#0a0700;stroke-width:0.0371681"
     d="M 9.8150313,15.472697 C 9.7449359,15.436121 9.6529447,15.358994 9.6106065,15.301303 9.5355759,15.199066 9.5333306,15.149535 9.5218657,13.343465 l -0.011763,-1.852946 -1.8094762,-0.01207 c -2.0039023,-0.01337 -1.9737963,-0.0097 -2.0994758,-0.253709 -0.1188312,-0.230682 -0.024831,-0.548457 0.1897308,-0.641399 0.070436,-0.03051 0.638706,-0.04743 1.9099828,-0.05688 l 1.8097142,-0.01344 0.011525,-1.8091646 c 0.010487,-1.6462209 0.01744,-1.8199871 0.077198,-1.9293315 0.168061,-0.3075135 0.6297955,-0.3075135 0.7978565,0 0.05976,0.109346 0.06671,0.2831368 0.0772,1.9298795 l 0.01153,1.8097126 1.809713,0.01153 c 1.646742,0.01049 1.820533,0.01744 1.929879,0.0772 0.307514,0.168061 0.307514,0.629795 0,0.797856 -0.109345,0.05976 -0.283125,0.06671 -1.929641,0.0772 l -1.809474,0.01153 -0.01177,1.848572 c -0.01077,1.691578 -0.01733,1.857065 -0.07733,1.948576 -0.140833,0.214818 -0.380454,0.291419 -0.582239,0.186126 z"
     id="path686" />
  <path
     style="fill:#0a0700;stroke-width:0.0371681"
     d="m 9.8150313,15.471181 c -0.070095,-0.03574 -0.1620866,-0.112187 -0.2044248,-0.169876 -0.07504,-0.10225 -0.077267,-0.151543 -0.088466,-1.957837 L 9.5106532,11.490522 7.7009019,11.477079 C 6.4122237,11.467506 5.8617258,11.450919 5.7889551,11.41947 5.5622872,11.321511 5.4712729,10.981659 5.6105394,10.753257 5.7450863,10.532596 5.6938358,10.538246 7.6820235,10.52486 l 1.828041,-0.01231 0.011782,-1.8275149 c 0.011106,-1.7226795 0.01583,-1.8334874 0.082346,-1.9316271 0.1832851,-0.2704248 0.6024045,-0.2797881 0.7743945,-0.0173 0.0902,0.1376678 0.09894,0.3192788 0.100941,2.0981132 l 0.0019,1.6793558 1.830531,0.01179 c 1.725631,0.01112 1.836497,0.01584 1.934643,0.08236 0.270425,0.183285 0.279788,0.602405 0.0173,0.774394 -0.137668,0.0902 -0.319278,0.09894 -2.098134,0.100941 l -1.679376,0.0019 -0.01177,1.850805 c -0.01307,2.054907 -0.0022,1.967801 -0.264678,2.127821 -0.146677,0.08943 -0.2312169,0.09106 -0.3948972,0.0076 z"
     id="path688" />
  <path
     style="fill:#0a0700;stroke-width:0.0371681"
     d="M 9.7865326,15.463582 C 9.524059,15.303542 9.5348645,15.390486 9.5224255,13.338524 L 9.5112226,11.490479 7.6826025,11.478426 C 6.2583888,11.469037 5.8350477,11.455572 5.7683651,11.417539 5.553951,11.295247 5.4771544,10.972013 5.6105394,10.753257 5.745105,10.532565 5.6937023,10.538225 7.6825861,10.525114 l 1.8286038,-0.01205 0.011219,-1.8294613 C 9.5326631,7.0115275 9.5392541,6.8455576 9.5990227,6.7543916 9.6970864,6.604813 9.869231,6.5299534 10.064516,6.5519649 c 0.210012,0.023671 0.340235,0.1484584 0.38233,0.3663714 0.01723,0.089207 0.03206,0.9348853 0.03295,1.879285 l 0.0016,1.7170907 1.830531,0.01123 c 1.427028,0.0088 1.849403,0.02199 1.916148,0.06006 0.214414,0.122293 0.291211,0.445527 0.157826,0.664283 -0.134617,0.220776 -0.08291,0.215103 -2.071776,0.22731 l -1.828332,0.01122 -0.01149,1.848878 c -0.01062,1.708048 -0.0166,1.856669 -0.07855,1.951173 -0.08398,0.128093 -0.27547,0.24714 -0.3975379,0.24714 -0.051106,0 -0.14637,-0.03259 -0.2116975,-0.07242 z"
     id="path690" />
  <path
     style="fill:#0a0700;stroke-width:0.0371681"
     d="M 9.7865326,15.463582 C 9.5240319,15.303526 9.5348656,15.390802 9.5224165,13.335762 L 9.5112045,11.484956 7.84985,11.481856 c -1.8909218,-0.0036 -2.049085,-0.0146 -2.1870328,-0.15255 -0.1926087,-0.192609 -0.146534,-0.572928 0.088038,-0.726707 0.091129,-0.05974 0.258135,-0.06644 1.9319699,-0.07746 l 1.8322183,-0.01206 8.869e-4,-1.7348395 c 4.876e-4,-0.9541618 0.016229,-1.8017423 0.034981,-1.8835122 0.021854,-0.095298 0.078246,-0.186388 0.1570777,-0.2537265 0.10878,-0.092921 0.1457988,-0.1032762 0.32053,-0.089662 0.236493,0.018426 0.366273,0.126254 0.417435,0.3468276 0.01853,0.079878 0.03409,0.9262872 0.03457,1.8809082 l 8.87e-4,1.7356744 1.830531,0.01123 c 1.991253,0.01221 1.939347,0.0065 2.073974,0.227317 0.174827,0.286723 0.02567,0.633542 -0.299442,0.696249 -0.09186,0.01772 -0.940572,0.03294 -1.886037,0.03383 l -1.719026,0.0016 -0.0014,1.719026 c -0.0015,1.80551 -0.0088,1.963876 -0.09679,2.101775 -0.07185,0.112553 -0.268639,0.230248 -0.3849886,0.230248 -0.051106,0 -0.14637,-0.03259 -0.2116975,-0.07242 z"
     id="path692" />
  <path
     style="fill:#0a0700;stroke-width:0.0371681"
     d="m 9.7865326,15.463582 c -0.2625007,-0.160056 -0.251667,-0.07278 -0.2641161,-2.12782 l -0.011212,-1.850806 -1.6799386,-0.0027 c -0.9239663,-0.0015 -1.7686693,-0.01534 -1.8771178,-0.03077 -0.2727241,-0.0388 -0.3858264,-0.15553 -0.4063867,-0.419416 -0.013643,-0.175103 -0.0033,-0.211802 0.09104,-0.323034 0.082798,-0.09762 0.1473918,-0.132207 0.2908945,-0.155749 0.1014549,-0.01664 0.9496625,-0.03126 1.8849059,-0.03248 l 1.7004424,-0.0022 8.884e-4,-1.7376105 C 9.5164195,7.8252876 9.5322579,6.9764602 9.5511275,6.8946903 9.5720947,6.803829 9.6316028,6.704652 9.7041636,6.6396382 9.8109885,6.5439234 9.843101,6.5349346 10.024479,6.5499759 c 0.240806,0.01997 0.370134,0.1267976 0.421478,0.3481532 0.01853,0.079878 0.03409,0.9262872 0.03457,1.8809082 l 8.85e-4,1.7356747 1.830531,0.01123 c 1.991253,0.01221 1.939347,0.0065 2.073974,0.227317 0.177572,0.291224 0.03039,0.632607 -0.300249,0.696396 -0.09141,0.01764 -0.939034,0.03279 -1.883606,0.03368 l -1.717403,0.0016 -0.01091,1.849115 c -0.01193,2.021371 -0.0061,1.968609 -0.235205,2.118584 -0.156827,0.10265 -0.2960603,0.106016 -0.4520104,0.01093 z"
     id="path694" />
  <path
     style="fill:#0a0700;stroke-width:0.0371681"
     d="M 9.7731874,15.46314 C 9.5296398,15.334368 9.534811,15.378274 9.5224165,13.334071 l -0.011212,-1.849115 -1.6985227,-0.0022 c -0.9341875,-0.0012 -1.7793251,-0.0155 -1.8780834,-0.03173 -0.2547513,-0.04188 -0.3666719,-0.16384 -0.3881627,-0.422989 -0.015105,-0.182145 -0.00624,-0.213315 0.091913,-0.323167 0.082107,-0.09189 0.1534562,-0.128935 0.2922202,-0.151707 0.1009745,-0.01657 0.948789,-0.03113 1.8840324,-0.03234 l 1.7004424,-0.0022 8.884e-4,-1.7376105 c 4.869e-4,-0.9556859 0.016325,-1.8045133 0.035195,-1.8862832 0.051386,-0.22268 0.2156889,-0.3530974 0.4448387,-0.3530974 0.2235222,0 0.3898582,0.121912 0.4469892,0.3276103 0.02347,0.084496 0.03813,0.8099706 0.03826,1.8931862 l 2.06e-4,1.7561946 1.719026,0.0016 c 0.945465,8.88e-4 1.792014,0.01572 1.881222,0.03295 0.236278,0.04564 0.347716,0.17342 0.36836,0.422368 0.01504,0.181379 0.0061,0.213491 -0.08966,0.320316 -0.06501,0.07256 -0.164191,0.132069 -0.255052,0.153036 -0.08177,0.01887 -0.929867,0.03471 -1.88466,0.03519 l -1.735987,8.89e-4 -0.01091,1.849115 c -0.01196,2.025885 -0.0078,1.988112 -0.235402,2.128789 -0.147261,0.09101 -0.2933909,0.0911 -0.465159,2.97e-4 z"
     id="path696" />
  <path
     style="fill:#ffffff;stroke-width:0.0371681"
     d="M 9.180531,19.434893 C 8.2479868,19.348007 7.1010552,19.019338 6.2046403,18.58211 4.2378442,17.622802 2.6973917,15.861822 1.9745472,13.746449 1.4914598,12.332714 1.4059415,10.591846 1.7484254,9.1433628 2.5719416,5.6604277 5.2693981,3.1660263 8.8088496,2.6144223 c 0.568344,-0.088573 1.7734774,-0.088157 2.3769034,8.208e-4 3.543195,0.5224608 6.362316,3.170275 7.097633,6.666338 0.250585,1.1914059 0.223083,2.6745199 -0.07084,3.8201889 -0.197104,0.768288 -0.608023,1.735036 -1.01758,2.394008 -0.74413,1.197297 -1.793206,2.19811 -3.033906,2.89433 -1.449141,0.813188 -3.29971,1.201389 -4.980531,1.044785 z m 1.692125,-0.964234 c 2.561961,-0.317861 4.725205,-1.824336 5.847828,-4.072406 C 17.6199,12.597157 17.760592,10.542151 17.116396,8.6154147 16.181721,5.8198829 13.754854,3.8657095 10.799034,3.5285191 10.308279,3.4725353 9.2238062,3.5025019 8.7716814,3.5845398 6.926889,3.9192765 5.4125422,4.7809655 4.2645783,6.149158 c -1.4957054,1.7826457 -2.0861262,4.11621 -1.622739,6.413674 0.5154878,2.555778 2.3616095,4.659235 4.8547749,5.531494 0.446076,0.156064 1.1678832,0.324037 1.6166372,0.37621 0.3809913,0.0443 1.4027986,0.04437 1.7594046,1.12e-4 z"
     id="path1521" />
  <path
     style="fill:#ffffff;stroke-width:0.0371681"
     d="M 9.8123894,15.492909 C 9.6509804,15.403637 9.573499,15.300402 9.5552178,15.150259 9.5292514,14.937 9.4975094,13.422699 9.4969382,12.369924 l -4.78e-4,-0.880519 -1.8371457,-0.01152 c -1.7957987,-0.01126 -1.8395064,-0.01326 -1.9420354,-0.08916 -0.060026,-0.04444 -0.1272108,-0.1468 -0.1570758,-0.239325 -0.044803,-0.138804 -0.044803,-0.182557 0,-0.309251 0.028702,-0.08116 0.099386,-0.18254 0.1570758,-0.225277 0.102555,-0.07597 0.1457813,-0.07796 1.9420354,-0.08922 l 1.8371457,-0.01152 5.129e-4,-1.1035276 C 9.4976496,7.9548708 9.5298818,6.91901 9.578465,6.7915135 c 0.1197509,-0.314262 0.669685,-0.3380291 0.823144,-0.035575 0.07289,0.1436538 0.09625,0.7046531 0.09739,2.3390276 l 0.001,1.4197459 1.837145,0.01123 c 1.796486,0.01098 1.839467,0.01295 1.942035,0.08893 0.246511,0.182616 0.24744,0.590759 0.0017,0.766005 l -0.119865,0.0855 -1.82536,0.01092 -1.82536,0.01092 -0.0179,1.830219 c -0.01437,1.468833 -0.02823,1.851702 -0.07022,1.939024 -0.106511,0.221529 -0.41775,0.341702 -0.6098356,0.235463 z"
     id="path1523" />
</svg>
